<svg width="159" height="32" viewBox="0 0 159 32" fill="none" xmlns="http://www.w3.org/2000/svg">
<g id="logo-gradient-neutral-bitbucket">
<g id="Bitbucket">
<path d="M33.7144 5.59874H42.3572C46.5715 5.59874 48.6072 7.61453 48.6072 10.8468C48.6072 13.2796 47.4643 14.7741 45.1429 15.2954C48.1786 15.782 49.7143 17.4155 49.7143 20.2654C49.7143 23.4629 47.5001 25.6872 42.8572 25.6872H33.7144V5.59874ZM36.5715 14.1833H42.0001C44.6786 14.1833 45.7858 13.0016 45.7858 11.0553C45.7858 9.109 44.6072 8.17062 42.0001 8.17062H36.5715V14.1833ZM36.5715 16.6509V22.9068H43.0001C45.7144 22.9068 46.9286 21.9684 46.9286 19.9526C46.9286 17.7978 45.7501 16.6509 42.9286 16.6509H36.5715Z" fill="#505F79"/>
<path d="M54.3572 4.52133C55.4643 4.52133 56.2501 5.18167 56.2501 6.36335C56.2501 7.51027 55.4643 8.20537 54.3572 8.20537C53.2501 8.20537 52.4644 7.54502 52.4644 6.36335C52.4644 5.18167 53.2501 4.52133 54.3572 4.52133ZM52.9644 10.3949H55.6786V25.6872H52.9644V10.3949Z" fill="#505F79"/>
<path d="M65.9644 23.2196C66.6073 23.2196 67.1787 23.0806 67.6787 23.0111V25.5482C67.2144 25.6872 66.6787 25.7915 65.8573 25.7915C62.5001 25.7915 60.8573 23.8799 60.8573 21.03V12.8278H58.3216V10.3949H60.8573V7.16272H63.5001V10.3949H67.6787V12.8278H63.5001V20.9258C63.5001 22.2812 64.3216 23.2196 65.9644 23.2196Z" fill="#505F79"/>
<path d="M73.8214 22.9763V25.6524H71.1071V4H73.8214V13.1406C74.8214 11.1248 76.7142 10.0821 79.1428 10.0821C83.3214 10.0821 85.4285 13.5229 85.4285 18.0411C85.4285 22.3507 83.2142 26 78.8214 26C76.5357 26 74.7857 24.9921 73.8214 22.9763ZM78.4285 12.5498C76 12.5498 73.8571 14.0442 73.8571 17.4502V18.6667C73.8571 22.0727 75.8214 23.5671 78.1428 23.5671C81.1785 23.5671 82.7499 21.6209 82.7499 18.0758C82.7142 14.357 81.2142 12.5498 78.4285 12.5498Z" fill="#505F79"/>
<path d="M88.25 10.3949H90.9642V19.6398C90.9642 22.3855 92.1071 23.6019 94.6785 23.6019C97.1785 23.6019 98.9285 21.9684 98.9285 18.8752V10.3949H101.643V25.6872H98.9285V23.1848C97.9285 24.9921 96.0714 26 93.9642 26C90.3571 26 88.2857 23.5671 88.2857 19.3618V10.3949H88.25Z" fill="#505F79"/>
<path d="M116.786 25.2701C115.857 25.7567 114.393 25.9652 112.964 25.9652C107.357 25.9652 104.75 22.6635 104.75 17.9716C104.75 13.3491 107.357 10.0474 112.964 10.0474C114.393 10.0474 115.464 10.2212 116.714 10.7772V13.2101C115.714 12.7583 114.643 12.4803 113.179 12.4803C109.107 12.4803 107.429 14.9826 107.429 17.9716C107.429 20.9605 109.143 23.4629 113.25 23.4629C114.857 23.4629 115.857 23.2543 116.822 22.9068V25.2701H116.786Z" fill="#505F79"/>
<path d="M119.857 25.6872V4H122.571V17.5545L129.321 10.3949H132.857L125.464 17.9021L133.179 25.6872H129.5L122.571 18.5276V25.6872H119.857Z" fill="#505F79"/>
<path d="M142.107 26C136.214 26 133.643 22.6983 133.643 18.0063C133.643 13.3839 136.286 10.0821 141.072 10.0821C145.929 10.0821 147.857 13.3491 147.857 18.0063V19.188H136.393C136.786 21.7946 138.5 23.4629 142.214 23.4629C144.036 23.4629 145.572 23.1153 147 22.6288V25.0616C145.714 25.7567 143.714 26 142.107 26ZM136.357 16.9289H145.143C145 14.079 143.679 12.4803 140.964 12.4803C138.107 12.4803 136.643 14.2875 136.357 16.9289Z" fill="#505F79"/>
<path d="M157.286 23.2196C157.929 23.2196 158.5 23.0806 159 23.0111V25.5482C158.536 25.6872 158 25.7915 157.179 25.7915C153.821 25.7915 152.179 23.8799 152.179 21.03V12.8278H149.643V10.3949H152.179V7.16272H154.821V10.3949H159V12.8278H154.821V20.9258C154.821 22.2812 155.643 23.2196 157.286 23.2196Z" fill="#505F79"/>
</g>
<g id="Icon">
<path id="Vector" d="M0.714155 6.18958C0.285584 6.18958 -0.0715591 6.57188 -0.000130514 6.98894L3.03558 24.8878C3.10701 25.3397 3.49987 25.6872 3.99987 25.6872H18.5356C18.8927 25.6872 19.1784 25.4439 19.2499 25.0964L22.2856 6.98894C22.357 6.57188 22.0356 6.18958 21.5713 6.18958H0.714155ZM13.4999 19.1185H8.85701L7.60701 12.7235H14.6427L13.4999 19.1185Z" fill="#7A869A"/>
<path id="Vector_2" d="M21.3212 12.7235H14.6069L13.4998 19.1185H8.85693L3.35693 25.4439C3.35693 25.4439 3.60693 25.6872 3.99979 25.6872H18.5355C18.8926 25.6872 19.1784 25.4439 19.2498 25.0963L21.3212 12.7235Z" fill="url(#paint0_linear)"/>
</g>
</g>
<defs>
<linearGradient id="paint0_linear" x1="22.861" y1="14.52" x2="12.0122" y2="23.2221" gradientUnits="userSpaceOnUse">
<stop offset="0.176" stop-color="#344563"/>
<stop offset="1" stop-color="#7A869A"/>
</linearGradient>
</defs>
</svg>
